<svg xmlns="http://www.w3.org/2000/svg" viewBox="0 0 1200 800" role="img" aria-labelledby="title desc">
  <title id="title">Robotic Leg Modeling and Control Thumbnail</title>
  <desc id="desc">Stylized thumbnail representing a robotic leg control model with jointed linkages, signal blocks, and motion plots.</desc>
  <defs>
    <linearGradient id="bg" x1="0" y1="0" x2="1" y2="1">
      <stop offset="0%" stop-color="#101a2d"/>
      <stop offset="55%" stop-color="#264a63"/>
      <stop offset="100%" stop-color="#7d8c53"/>
    </linearGradient>
  </defs>
  <rect width="1200" height="800" fill="url(#bg)"/>
  <rect x="70" y="78" width="1060" height="644" rx="34" fill="#ffffff" fill-opacity=".08" stroke="#ffffff" stroke-opacity=".14"/>
  <rect x="115" y="185" width="280" height="160" rx="26" fill="#f5efe2"/>
  <rect x="115" y="385" width="280" height="160" rx="26" fill="#f5efe2"/>
  <rect x="760" y="175" width="300" height="170" rx="26" fill="#f5efe2"/>
  <rect x="760" y="395" width="300" height="170" rx="26" fill="#f5efe2"/>
  <rect x="478" y="185" width="200" height="380" rx="26" fill="#f5efe2"/>
  <path d="M398 265h80" stroke="#f6d365" stroke-width="10" stroke-linecap="round"/>
  <path d="M678 375h82" stroke="#f6d365" stroke-width="10" stroke-linecap="round"/>
  <circle cx="574" cy="270" r="28" fill="#244b5a"/>
  <circle cx="620" cy="410" r="28" fill="#2a7b79"/>
  <circle cx="556" cy="552" r="26" fill="#8d6e3e"/>
  <path d="M574 270l46 140-64 142" fill="none" stroke="#214d7f" stroke-width="18" stroke-linecap="round" stroke-linejoin="round"/>
  <path d="M620 410l92-82" fill="none" stroke="#214d7f" stroke-width="14" stroke-linecap="round"/>
  <path d="M556 552l108 22" fill="none" stroke="#214d7f" stroke-width="14" stroke-linecap="round"/>
  <path d="M160 268c44-36 88 36 132 0s88-36 132 0" fill="none" stroke="#244b5a" stroke-width="12" stroke-linecap="round"/>
  <path d="M165 461h70l20-34 28 68 28-68 20 34h73" fill="none" stroke="#8d6e3e" stroke-width="12" stroke-linejoin="round" stroke-linecap="round"/>
  <rect x="804" y="222" width="66" height="54" rx="14" fill="#2a7b79"/>
  <rect x="892" y="222" width="66" height="54" rx="14" fill="#244b5a"/>
  <rect x="980" y="222" width="48" height="54" rx="14" fill="#8d6e3e"/>
  <path d="M806 468c35-30 70 30 105 0s70-30 105 0" fill="none" stroke="#244b5a" stroke-width="11" stroke-linecap="round"/>
  <path d="M807 503c35-30 70 30 105 0s70-30 105 0" fill="none" stroke="#2a7b79" stroke-width="11" stroke-linecap="round"/>
  <text x="120" y="126" fill="#ffffff" font-family="Segoe UI, Arial, sans-serif" font-size="28" letter-spacing="6">SIMULINK THUMBNAIL</text>
  <text x="120" y="690" fill="#ffffff" font-family="Georgia, Times New Roman, serif" font-size="54">Robotic Leg Modeling &amp; Control</text>
  <text x="120" y="735" fill="#eaf1e1" font-family="Segoe UI, Arial, sans-serif" font-size="24">Dynamic joints, actuator response, gait-oriented control loops</text>
</svg>
