<svg xmlns="http://www.w3.org/2000/svg" viewBox="0 0 1200 800" role="img" aria-labelledby="title desc">
  <title id="title">Solar Panel Tracker Thumbnail</title>
  <desc id="desc">Stylized thumbnail representing a solar tracking control model with sun path, PV grid, and feedback blocks.</desc>
  <defs>
    <linearGradient id="bg" x1="0" y1="0" x2="1" y2="1">
      <stop offset="0%" stop-color="#1b3257"/>
      <stop offset="52%" stop-color="#2b5f7a"/>
      <stop offset="100%" stop-color="#d39c39"/>
    </linearGradient>
    <linearGradient id="panel" x1="0" y1="0" x2="1" y2="1">
      <stop offset="0%" stop-color="#eff5f8"/>
      <stop offset="100%" stop-color="#d8e2e8"/>
    </linearGradient>
  </defs>
  <rect width="1200" height="800" fill="url(#bg)"/>
  <circle cx="980" cy="150" r="92" fill="#f6d365"/>
  <g fill="#f6d365" fill-opacity=".85">
    <rect x="973" y="22" width="14" height="54" rx="7"/>
    <rect x="973" y="224" width="14" height="54" rx="7"/>
    <rect x="851" y="144" width="54" height="14" rx="7"/>
    <rect x="1056" y="144" width="54" height="14" rx="7"/>
  </g>
  <rect x="74" y="84" width="1052" height="638" rx="34" fill="#ffffff" fill-opacity=".08" stroke="#ffffff" stroke-opacity=".14"/>
  <rect x="120" y="170" width="290" height="220" rx="28" fill="url(#panel)"/>
  <rect x="790" y="170" width="270" height="150" rx="28" fill="url(#panel)"/>
  <rect x="790" y="370" width="270" height="150" rx="28" fill="url(#panel)"/>
  <rect x="475" y="220" width="215" height="290" rx="22" fill="#f5efe2"/>
  <path d="M265 510l-95 125h190z" fill="#244b5a"/>
  <rect x="204" y="387" width="122" height="110" rx="8" fill="#214d7f" transform="rotate(-18 265 442)"/>
  <g stroke="#88c9f1" stroke-width="4">
    <line x1="220" y1="398" x2="236" y2="490"/>
    <line x1="247" y1="390" x2="263" y2="482"/>
    <line x1="274" y1="381" x2="290" y2="474"/>
    <line x1="301" y1="373" x2="317" y2="465"/>
    <line x1="210" y1="421" x2="314" y2="389"/>
    <line x1="214" y1="445" x2="318" y2="413"/>
    <line x1="218" y1="469" x2="322" y2="437"/>
  </g>
  <path d="M410 280h65" stroke="#f6d365" stroke-width="10" stroke-linecap="round"/>
  <path d="M690 280h90" stroke="#f6d365" stroke-width="10" stroke-linecap="round"/>
  <path d="M690 445h90" stroke="#f6d365" stroke-width="10" stroke-linecap="round"/>
  <rect x="505" y="250" width="52" height="62" rx="14" fill="#2a7b79"/>
  <rect x="606" y="250" width="52" height="62" rx="14" fill="#8d6e3e"/>
  <rect x="505" y="347" width="52" height="62" rx="14" fill="#244b5a"/>
  <rect x="606" y="347" width="52" height="62" rx="14" fill="#2a7b79"/>
  <path d="M839 245c28-30 56 30 84 0s56-30 84 0" fill="none" stroke="#244b5a" stroke-width="10" stroke-linecap="round"/>
  <path d="M838 446h171l16-20 16 40 16-40 16 20" fill="none" stroke="#8d6e3e" stroke-width="10" stroke-linejoin="round" stroke-linecap="round"/>
  <text x="120" y="126" fill="#ffffff" font-family="Segoe UI, Arial, sans-serif" font-size="28" letter-spacing="6">SIMULINK THUMBNAIL</text>
  <text x="120" y="690" fill="#ffffff" font-family="Georgia, Times New Roman, serif" font-size="54">Solar Panel Tracker</text>
  <text x="120" y="735" fill="#edf4fb" font-family="Segoe UI, Arial, sans-serif" font-size="24">PV orientation logic, solar path sensing, closed-loop positioning</text>
</svg>
